<svg xmlns="http://www.w3.org/2000/svg" xmlns:xlink="http://www.w3.org/1999/xlink" fill="none" version="1.1" width="32" height="32" viewBox="0 0 32 32"><g><path d="M20.3149,9.2372Q20.3687,9.35231,20.4495,9.45031Q20.5304,9.54832,20.6332,9.62299Q20.736,9.69767,20.8541,9.74427Q20.9723,9.79087,21.0984,9.80644L29.0923,10.7934Q29.1275,10.7978,29.1622,10.8046Q29.197,10.8114,29.2312,10.8207Q29.2655,10.8299,29.2989,10.8416Q29.3324,10.8533,29.365,10.8673Q29.3975,10.8813,29.429,10.8976Q29.4605,10.9138,29.4907,10.9323Q29.521,10.9508,29.5499,10.9713Q29.5787,10.9919,29.6061,11.0145Q29.6334,11.037,29.6591,11.0615Q29.6848,11.0859,29.7087,11.1121Q29.7325,11.1383,29.7545,11.1661Q29.7765,11.1939,29.7964,11.2232Q29.8164,11.2525,29.8342,11.2831Q29.852,11.3138,29.8676,11.3456Q29.8832,11.3774,29.8965,11.4103Q29.9098,11.4431,29.9208,11.4769Q29.9318,11.5106,29.9403,11.545Q29.9488,11.5794,29.9549,11.6143Q29.961,11.6492,29.9646,11.6845Q29.9682,11.7197,29.9693,11.7552Q29.9704,11.7906,29.9689,11.826Q29.9675,11.8614,29.9636,11.8967Q29.9597,11.9319,29.9533,11.9667Q29.9468,12.0016,29.938,12.0359Q29.9291,12.0702,29.9178,12.1039Q29.9066,12.1375,29.8929,12.1702Q29.8793,12.2029,29.8634,12.2346Q29.8475,12.2663,29.8294,12.2967Q29.8113,12.3272,29.7911,12.3563Q29.7709,12.3854,29.7486,12.413Q29.7264,12.4406,29.7023,12.4666Q29.6781,12.4926,29.6522,12.5168L23.7652,18.0139Q23.6723,18.1006,23.6041,18.2078Q23.5359,18.315,23.4966,18.4358Q23.4574,18.5566,23.4496,18.6834Q23.4418,18.8102,23.4659,18.935L24.9975,26.8426Q25.0042,26.8774,25.0085,26.9126Q25.0128,26.9477,25.0145,26.9832Q25.0163,27.0186,25.0155,27.054Q25.0148,27.0894,25.0115,27.1247Q25.0082,27.16,25.0025,27.195Q24.9967,27.23,24.9885,27.2645Q24.9803,27.2989,24.9697,27.3328Q24.959,27.3666,24.946,27.3995Q24.933,27.4325,24.9177,27.4645Q24.9024,27.4965,24.8849,27.5273Q24.8674,27.5581,24.8477,27.5876Q24.828,27.6171,24.8063,27.6451Q24.7846,27.6731,24.761,27.6995Q24.7374,27.7259,24.7119,27.7506Q24.6865,27.7753,24.6593,27.7981Q24.6322,27.8209,24.6035,27.8417Q24.5748,27.8626,24.5448,27.8813Q24.5147,27.9001,24.4834,27.9167Q24.452,27.9332,24.4196,27.9475Q24.3872,27.9619,24.3538,27.9738Q24.3205,27.9858,24.2863,27.9954Q24.2522,28.005,24.2175,28.0122Q24.1828,28.0193,24.1476,28.024Q24.1125,28.0287,24.0771,28.0308Q24.0417,28.033,24.0063,28.0327Q23.9709,28.0323,23.9355,28.0295Q23.9002,28.0267,23.8652,28.0213Q23.8301,28.016,23.7955,28.0082Q23.761,28.0004,23.727,27.9901Q23.6931,27.9799,23.66,27.9673Q23.6268,27.9547,23.5947,27.9398Q23.5625,27.9248,23.5315,27.9077L16.4842,24.0075Q16.3731,23.946,16.2501,23.9142Q16.127,23.8824,16,23.8824Q15.873,23.8824,15.7499,23.9142Q15.6269,23.946,15.5158,24.0075L8.46848,27.9077Q8.43746,27.9248,8.40531,27.9398Q8.37316,27.9547,8.34004,27.9673Q8.30691,27.9799,8.27297,27.9901Q8.23904,28.0004,8.20446,28.0082Q8.16988,28.016,8.13484,28.0213Q8.0998,28.0267,8.06447,28.0295Q8.02914,28.0323,7.99369,28.0327Q7.95825,28.033,7.92287,28.0308Q7.88749,28.0287,7.85236,28.024Q7.81722,28.0193,7.7825,28.0122Q7.74779,28.005,7.71366,27.9954Q7.67954,27.9858,7.64618,27.9738Q7.61282,27.9619,7.58039,27.9475Q7.54797,27.9332,7.51664,27.9167Q7.4853,27.9001,7.45522,27.8813Q7.42515,27.8626,7.39647,27.8417Q7.36779,27.8209,7.34066,27.7981Q7.31353,27.7753,7.28809,27.7506Q7.26264,27.7259,7.23901,27.6995Q7.21537,27.6731,7.19367,27.6451Q7.17196,27.617,7.1523,27.5876Q7.13263,27.5581,7.1151,27.5273Q7.09757,27.4965,7.08227,27.4645Q7.06696,27.4325,7.05396,27.3995Q7.04096,27.3666,7.03032,27.3327Q7.01969,27.2989,7.01147,27.2645Q7.00326,27.23,6.99751,27.195Q6.99176,27.16,6.9885,27.1247Q6.98523,27.0894,6.98448,27.054Q6.98373,27.0186,6.98548,26.9832Q6.98724,26.9477,6.9915,26.9126Q6.99576,26.8774,7.0025,26.8426L8.53407,18.935Q8.55823,18.8102,8.55043,18.6834Q8.54263,18.5566,8.50338,18.4358Q8.46412,18.315,8.39589,18.2078Q8.32767,18.1006,8.23481,18.0139L2.34776,12.5168Q2.32186,12.4926,2.29773,12.4666Q2.2736,12.4406,2.25137,12.413Q2.22914,12.3854,2.20892,12.3563Q2.1887,12.3272,2.17059,12.2967Q2.15248,12.2663,2.13658,12.2346Q2.12067,12.2029,2.10705,12.1702Q2.09343,12.1375,2.08216,12.1039Q2.07088,12.0702,2.06202,12.0359Q2.05316,12.0016,2.04675,11.9667Q2.04033,11.9319,2.03641,11.8967Q2.03248,11.8614,2.03106,11.826Q2.02964,11.7906,2.03072,11.7552Q2.03181,11.7197,2.03541,11.6845Q2.039,11.6492,2.04508,11.6143Q2.05116,11.5794,2.0597,11.545Q2.06824,11.5106,2.0792,11.4769Q2.09015,11.4431,2.10346,11.4103Q2.11677,11.3774,2.13238,11.3456Q2.14799,11.3138,2.1658,11.2832Q2.18362,11.2525,2.20357,11.2232Q2.22351,11.1939,2.24548,11.1661Q2.26745,11.1383,2.29133,11.1121Q2.31522,11.0859,2.34089,11.0615Q2.36657,11.037,2.39391,11.0145Q2.42126,10.9919,2.45013,10.9713Q2.479,10.9508,2.50926,10.9323Q2.53951,10.9138,2.571,10.8976Q2.60249,10.8813,2.63505,10.8673Q2.66761,10.8533,2.70108,10.8416Q2.73455,10.8299,2.76876,10.8207Q2.80297,10.8114,2.83775,10.8046Q2.87254,10.7978,2.90772,10.7934L10.9016,9.80644Q11.0277,9.79087,11.1459,9.74427Q11.264,9.69767,11.3668,9.62299Q11.4696,9.54832,11.5505,9.45031Q11.6313,9.35231,11.6851,9.2372L15.094,1.93957Q15.109,1.90746,15.1262,1.87649Q15.1435,1.84551,15.1628,1.81584Q15.1822,1.78617,15.2037,1.75794Q15.2251,1.72971,15.2485,1.70308Q15.2719,1.67644,15.2971,1.65152Q15.3223,1.62661,15.3492,1.60354Q15.3761,1.58047,15.4046,1.55937Q15.4331,1.53826,15.463,1.51923Q15.4929,1.50019,15.5241,1.48332Q15.5552,1.46645,15.5875,1.45183Q15.6198,1.43721,15.6531,1.42491Q15.6863,1.41262,15.7203,1.4027Q15.7544,1.39279,15.789,1.38531Q15.8237,1.37783,15.8588,1.37283Q15.8938,1.36782,15.9292,1.36531Q15.9646,1.3628,16,1.3628Q16.0354,1.3628,16.0708,1.36531Q16.1062,1.36782,16.1412,1.37283Q16.1763,1.37783,16.211,1.38531Q16.2456,1.39279,16.2797,1.4027Q16.3137,1.41262,16.3469,1.42491Q16.3802,1.43721,16.4125,1.45183Q16.4448,1.46645,16.4759,1.48332Q16.5071,1.50019,16.537,1.51923Q16.5669,1.53826,16.5954,1.55937Q16.6239,1.58047,16.6508,1.60354Q16.6777,1.62661,16.7029,1.65152Q16.7281,1.67644,16.7515,1.70308Q16.7749,1.72971,16.7963,1.75794Q16.8178,1.78617,16.8372,1.81584Q16.8565,1.84551,16.8738,1.87649Q16.891,1.90746,16.906,1.93957L20.3149,9.2372Z" fill="#E3E3E8" fill-opacity="1"/></g></svg>